<svg width="6" height="8" viewBox="0 0 6 8" fill="none" xmlns="http://www.w3.org/2000/svg">
<path d="M1.67089 7.23689C2.09403 7.23689 2.40868 6.92224 2.40868 6.4991V6.0434H4.63291C4.98011 6.0434 5.22966 5.79385 5.22966 5.4575C5.22966 5.12116 4.98011 4.87161 4.63291 4.87161H2.40868V4.18807H3.68897C5.07776 4.18807 6 3.35262 6 2.09403C6 0.835443 5.07776 0 3.68897 0H1.68174C1.25859 0 0.943942 0.314647 0.943942 0.737794V2.95118H0.607595C0.260398 2.95118 0 3.21157 0 3.56962C0 3.92767 0.260398 4.18807 0.607595 4.18807H0.943942V4.87161H0.607595C0.271248 4.87161 0.0108499 5.12116 0.0108499 5.4575C0.0108499 5.79385 0.271248 6.0434 0.607595 6.0434H0.943942V6.4991C0.943942 6.92224 1.25859 7.23689 1.67089 7.23689ZM2.40868 2.95118V1.23689H3.59132C4.16637 1.23689 4.53526 1.58409 4.53526 2.10488C4.53526 2.62568 4.16637 2.95118 3.59132 2.95118H2.40868Z" fill="#262626"/>
</svg>
