<svg width="16" height="16" viewBox="0 0 16 16" fill="none" xmlns="http://www.w3.org/2000/svg">
<path fill-rule="evenodd" clip-rule="evenodd" d="M2 7C0.895431 7 0 6.10457 0 5L0 2C0 0.89543 0.895431 0 2 0L14 0C15.1046 0 16 0.89543 16 2L16 5C16 6.10457 15.1046 7 14 7L2 7ZM2 5L14 5L14 2L2 2L2 5Z" fill="#15B742"/>
<path fill-rule="evenodd" clip-rule="evenodd" d="M2 16C0.895431 16 0 15.1046 0 14L0 11C0 9.89543 0.895431 9 2 9L14 9C15.1046 9 16 9.89543 16 11V14C16 15.1046 15.1046 16 14 16L2 16ZM2 14L14 14V11L2 11L2 14Z" fill="#15B742"/>
</svg>
