<svg width="14" height="13" viewBox="0 0 14 13" fill="none" xmlns="http://www.w3.org/2000/svg">
<path fill-rule="evenodd" clip-rule="evenodd" d="M0.999794 4.00049C0.360146 4.00049 -0.114463 4.59277 0.0242084 5.21729L1.40507 11.4346C1.60917 12.3496 2.42069 13.0005 3.35819 13.0005H10.1492C10.616 13.0005 11.0516 12.8389 11.3963 12.564C11.7439 12.2866 11.9998 11.894 12.1014 11.4346L13.4832 5.21729C13.6219 4.59277 13.1463 4.00049 12.5066 4.00049H9.28886C8.95487 4.00049 8.64237 4.16748 8.45683 4.4458L8.41776 4.50439C7.62577 5.69189 5.88065 5.69189 5.08964 4.50439L5.05058 4.4458C4.86503 4.16748 4.55253 4.00049 4.21854 4.00049H0.999794ZM4.27811 7.76709C4.27811 7.34375 3.93729 7.00049 3.5164 7.00049C3.09452 7.00049 2.7537 7.34375 2.7537 7.76709V10.2339C2.7537 10.6572 3.09452 11.0005 3.5164 11.0005C3.93729 11.0005 4.27811 10.6572 4.27811 10.2339V7.76709ZM7.52811 7.76709C7.52811 7.34375 7.18632 7.00049 6.76542 7.00049C6.34452 7.00049 6.0037 7.34375 6.0037 7.76709V10.2339C6.0037 10.6572 6.34452 11.0005 6.76542 11.0005C7.18632 11.0005 7.52811 10.6572 7.52811 10.2339V7.76709ZM9.991 7.00049C10.4129 7.00049 10.7537 7.34375 10.7537 7.76709V10.2339C10.7537 10.6572 10.4129 11.0005 9.991 11.0005C9.57011 11.0005 9.22929 10.6572 9.22929 10.2339V7.76709C9.22929 7.34375 9.57011 7.00049 9.991 7.00049Z" fill="white"/>
<path fill-rule="evenodd" clip-rule="evenodd" d="M8.12556 0.0717893C8.63835 0.276903 8.88776 0.858873 8.68265 1.37166L7.68265 3.87166C7.47754 4.38444 6.89557 4.63386 6.38278 4.42874C5.87 4.22363 5.62058 3.64166 5.8257 3.12888L6.8257 0.628875C7.03081 0.116092 7.61278 -0.133324 8.12556 0.0717893Z" fill="white"/>
</svg>
