<svg width="12" height="12" viewBox="0 0 12 12" fill="none" xmlns="http://www.w3.org/2000/svg">
<path fill-rule="evenodd" clip-rule="evenodd" d="M11.7416 5.50474C11.9827 5.23322 12.0608 4.86077 11.9516 4.50957C11.8424 4.15778 11.5684 3.90514 11.2209 3.83313L8.4256 3.25704C8.34353 3.23992 8.27278 3.18621 8.23147 3.11007L6.84258 0.515293C6.66939 0.192423 6.35414 0 5.99984 0C5.64554 0 5.33086 0.192423 5.15767 0.515293L3.76877 3.11007C3.72745 3.18621 3.65671 3.23992 3.57408 3.25704L0.77931 3.83313C0.431235 3.90514 0.157874 4.15778 0.0486405 4.50957C-0.0611577 4.86077 0.0175031 5.23322 0.258608 5.50474L2.19538 7.68397C2.25197 7.74831 2.27913 7.83508 2.26895 7.92185L1.93107 10.8725C1.88919 11.2397 2.03463 11.5891 2.32215 11.8063C2.49194 11.935 2.68833 12 2.88642 12C3.02395 12 3.16261 11.9687 3.29392 11.9055L5.87986 10.6577C5.95626 10.6211 6.04341 10.6211 6.11982 10.6577L8.70632 11.9055C9.02722 12.0601 9.39001 12.0235 9.67753 11.8063C9.96504 11.5891 10.1111 11.2397 10.0692 10.8725L9.73073 7.92244C9.72054 7.83508 9.74771 7.74831 9.80544 7.68397L11.7416 5.50474Z" fill="#FAD656"/>
</svg>
