<svg width="14" height="12" viewBox="0 0 14 12" fill="none" xmlns="http://www.w3.org/2000/svg">
<path fill-rule="evenodd" clip-rule="evenodd" d="M7.00015 3.08427L5.50463 2.08725C4.37093 1.33144 2.83136 1.7403 2.222 2.95901C1.78595 3.83113 1.95688 4.88443 2.64633 5.57389L7.00015 9.92775L11.354 5.57389C12.0434 4.88443 12.2143 3.83113 11.7783 2.95901C11.1689 1.7403 9.62936 1.33144 8.49567 2.08725L7.00015 3.08427ZM6.40214 0.740995C4.45867 -0.554668 1.81941 0.146233 0.774819 2.23543C0.027315 3.73045 0.320324 5.53607 1.50223 6.71798L6.48166 11.6975C6.76801 11.9838 7.23228 11.9838 7.51864 11.6975L12.4981 6.71798C13.68 5.53606 13.973 3.73045 13.2255 2.23543C12.1809 0.146233 9.54163 -0.554668 7.59816 0.740995L7.00015 1.13967L6.40214 0.740995Z" fill="#262626" fill-opacity="0.4"/>
</svg>
