<svg width="14" height="14" viewBox="0 0 14 14" fill="none" xmlns="http://www.w3.org/2000/svg">
<path d="M8.99951 4H5.00012C4.74951 4 4.49951 4.15 4.49951 4.5C4.49951 4.85 4.74951 4.96003 5.00012 4.96003H9.00008C9.24951 4.96003 9.49951 4.84766 9.49951 4.5C9.49951 4.15234 9.24951 4 8.99951 4Z" fill="#262626" fill-opacity="0.4"/>
<path fill-rule="evenodd" clip-rule="evenodd" d="M-0.000244141 1.5C-0.000244141 0.5 0.763384 0 1.49976 0H12.4998C13.2361 0 13.9995 0.5 13.9995 1.5C13.9995 2.5 13.2361 2.96007 12.4998 2.96007V12.2041C12.4998 13.0248 11.6681 13.69 10.8475 13.69C10.4448 13.69 10.0593 13.5266 9.77934 13.2371C9.70575 13.161 9.57181 12.9423 9.4525 12.9441C9.37798 12.9453 9.34498 13.0294 9.31038 13.083C8.7745 13.9142 7.55901 13.9142 7.02313 13.083L7.00107 13.0488L7.0001 13.0483L6.99913 13.0488C6.69451 13.5213 5.98718 13.6837 5.66976 13.6808C4.94163 13.6741 4.63734 12.7975 4.33976 12.7975C3.91244 12.7975 4.01583 13.69 3.00014 13.69C2.19971 13.69 1.49976 13.0412 1.49976 12.2407L1.49976 2.96007C0.763384 2.96007 -0.000244141 2.5 -0.000244141 1.5ZM3.00014 2.16665C3.00014 1.79847 3.29861 1.5 3.6668 1.5H10.3334C10.7016 1.5 11.0001 1.79847 11.0001 2.16665V12.2041C11.0001 12.2884 10.9317 12.3567 10.8475 12.3567C10.3843 12.3567 10.266 11.4988 9.66976 11.5C9.16976 11.501 8.52777 11.8363 8.25006 12.2671L8.18978 12.3605C8.18689 12.365 8.18382 12.368 8.18382 12.368L8.18192 12.3695L8.18076 12.3701C8.17831 12.3714 8.17348 12.3731 8.16675 12.3731C8.16002 12.3731 8.1552 12.3714 8.15274 12.3701L8.14968 12.368C8.14968 12.368 8.14662 12.365 8.14373 12.3605L8.12167 12.3263C7.86359 11.9261 7.49937 11.5 6.99976 11.5C6.38446 11.5 6.11694 12.3552 5.66976 12.3552C5.22257 12.3552 5.13729 11.5 4.33976 11.5C3.68962 11.5 3.50688 12.3637 3.11612 12.3552C3.05751 12.3539 3.00014 12.31 3.00014 12.2407V2.16665Z" fill="#262626" fill-opacity="0.4"/>
<path d="M8.99951 6H5.00012C4.74951 6 4.49951 6.15 4.49951 6.5C4.49951 6.85 4.74951 7 5.00012 7H9.00008C9.24951 7 9.49951 6.84766 9.49951 6.5C9.49951 6.15234 9.24951 6 8.99951 6Z" fill="#262626" fill-opacity="0.4"/>
<path d="M7.99951 8L5.00012 8C4.74951 8 4.49951 8.15 4.49951 8.5C4.49951 8.85 4.74951 9 5.00012 9L8.00008 9C8.24951 9 8.49951 8.84766 8.49951 8.5C8.49951 8.15234 8.24951 8 7.99951 8Z" fill="#262626" fill-opacity="0.4"/>
</svg>
