<svg width="10" height="6" viewBox="0 0 10 6" fill="none" xmlns="http://www.w3.org/2000/svg">
<path d="M4.72401 4.45589L3.22825 2.58351L4.58412 1.15231C4.72401 1.01242 4.79934 0.82949 4.79934 0.657316C4.79934 0.291447 4.50879 0.0116656 4.13216 0.000904234C3.93847 -0.00985647 3.7663 0.0762305 3.63717 0.216121L1.94771 2.0347C1.76478 2.23916 1.68945 2.40057 1.68945 2.57275C1.68945 2.73416 1.75402 2.89557 1.90467 3.08927L3.72325 5.33828C3.84162 5.4997 4.0138 5.57502 4.22901 5.57502C4.60564 5.57502 4.89618 5.27372 4.89618 4.90785C4.89618 4.74644 4.84238 4.60655 4.72401 4.45589ZM0.731737 0.000904234C0.312064 0.000904234 0 0.312969 0 0.732642V4.83252C0 5.2522 0.312064 5.57502 0.731737 5.57502C1.14065 5.57502 1.45271 5.2522 1.45271 4.83252V0.732642C1.45271 0.312969 1.15141 0.000904234 0.731737 0.000904234Z" fill="#262626"/>
<path d="M6.652 5.57502C7.06092 5.57502 7.37298 5.2522 7.37298 4.83252V1.34601H9.34222C9.69732 1.34601 9.96634 1.08775 9.96634 0.732642C9.96634 0.377534 9.69732 0.119274 9.34222 0.119274H6.66276C6.23233 0.119274 5.92027 0.442099 5.92027 0.861772V4.83252C5.92027 5.2522 6.23233 5.57502 6.652 5.57502Z" fill="#262626"/>
</svg>
